<?xml version="1.0" encoding="UTF-8" standalone="no" ?>
<!DOCTYPE svg PUBLIC "-//W3C//DTD SVG 1.1//EN" "http://www.w3.org/Graphics/SVG/1.1/DTD/svg11.dtd">
<svg xmlns="http://www.w3.org/2000/svg" xmlns:xlink="http://www.w3.org/1999/xlink" version="1.1" width="600" height="600" viewBox="80 80 600 600" xml:space="preserve">
<desc>Created with Fabric.js 5.2.4</desc>
<defs>
</defs>
<g transform="matrix(1 0 0 1 300 300)" id="1ff4a8d2-32cc-4c26-aa7c-1dc82021402b"  >
<rect style="stroke: none; stroke-width: 1; stroke-dasharray: none; stroke-linecap: butt; stroke-dashoffset: 0; stroke-linejoin: miter; stroke-miterlimit: 4; fill: rgb(255,255,255); fill-rule: nonzero; opacity: 1; visibility: hidden;" vector-effect="non-scaling-stroke"  x="-300" y="-300" rx="0" ry="0" width="600" height="600" />
</g>
<g transform="matrix(Infinity NaN NaN Infinity 0 0)" id="f6fbec89-947d-4488-b534-7941c240d33a"  >
</g>
<g transform="matrix(0.56 0 0 0.56 376.05 380.53)"  >
<g style="" vector-effect="non-scaling-stroke"   >
		<g transform="matrix(1 0 0 1 0 0)" id="object-0"  >
<path style="stroke: none; stroke-width: 1; stroke-dasharray: none; stroke-linecap: butt; stroke-dashoffset: 0; stroke-linejoin: miter; stroke-miterlimit: 4; fill: rgb(255,255,255); fill-rule: nonzero; opacity: 1;" vector-effect="non-scaling-stroke"  transform=" translate(-1015.97, -1006.09)" d="M 1017.63 661.44 C 1032.38 661.073 1048.42 660.018 1063.03 661.614 C 1066.8 662.026 1069.54 662.652 1071.91 665.706 C 1069.6 671.217 1055.52 674.137 1050.22 677.147 C 1045.17 680.02 1040.34 683.869 1035.83 687.52 C 996.249 719.55 969.722 763.939 964.671 815.1 C 959.762 864.828 973.493 915.487 1005.48 954.308 C 1042.02 998.653 1085.17 1021.05 1142 1026.33 C 1190.13 1030.81 1251.98 1010.39 1286.64 976.443 C 1304.75 958.708 1318.62 935.781 1330.03 913.264 C 1333.79 905.836 1333.43 889.881 1339.07 885.174 C 1341.09 885.257 1341.8 884.952 1343.48 886.169 C 1346.59 907.906 1343.05 934.959 1343.09 957.385 L 1343.86 1148.86 C 1344.24 1208.09 1345.87 1263.57 1300.97 1308.64 C 1252.27 1357.54 1189.34 1349.79 1126.51 1348.67 C 1094.71 1348.1 1062.85 1348.45 1031.04 1348.48 Q 1005.27 1348.95 979.488 1349.02 C 975.676 1351.27 974.072 1352.04 969.542 1350.93 C 968.031 1348.87 968.308 1348.35 968.11 1345.89 C 971.068 1341.98 981.472 1338.93 986.238 1336.17 C 1022.12 1315.41 1047.3 1279.29 1057.86 1239.55 C 1071.32 1188.95 1066.64 1135.52 1039.84 1090.05 Q 1038.17 1087.2 1036.4 1084.42 Q 1034.64 1081.63 1032.77 1078.9 Q 1030.91 1076.18 1028.96 1073.52 Q 1027 1070.86 1024.96 1068.27 Q 1022.91 1065.68 1020.78 1063.17 Q 1018.65 1060.65 1016.43 1058.2 Q 1014.21 1055.76 1011.91 1053.4 Q 1009.6 1051.03 1007.22 1048.75 Q 1004.84 1046.47 1002.38 1044.27 Q 999.922 1042.07 997.388 1039.95 Q 994.854 1037.84 992.249 1035.81 Q 989.643 1033.79 986.97 1031.85 Q 984.296 1029.92 981.558 1028.08 Q 978.819 1026.23 976.018 1024.49 Q 973.218 1022.74 970.358 1021.1 Q 967.499 1019.45 964.585 1017.9 C 958.473 1014.63 951.832 1010.78 945.051 1009.13 C 931.472 1005.81 918.625 1000.79 904.794 997.965 C 880.073 992.916 845.603 996.185 821.333 1002.95 C 780.006 1014.48 730.565 1047.39 710.578 1086.26 C 706.718 1093.77 703.03 1101.68 700.177 1109.62 C 697.558 1116.91 695.825 1125.17 691.949 1131.88 C 691.805 1132.13 691.652 1132.37 691.503 1132.61 L 691.747 1132.49 L 688.644 1133.56 C 687.907 1131.94 687.535 1130.99 687.439 1129.23 C 686.694 1115.67 687.821 1097.69 687.77 1083.44 L 688.046 952.247 L 687.847 857.188 C 687.768 829.245 686.428 801.636 691.622 774.034 C 695.971 750.922 706.007 728.473 721.325 710.506 C 738.24 690.666 763.427 675.044 788.51 668.145 C 821.667 659.025 863.846 661.597 898.175 662.278 Q 931.113 662.745 964.053 662.485 C 981.884 662.451 999.841 662.817 1017.63 661.44 Z" stroke-linecap="round" />
</g>
		<g transform="matrix(1 0 0 1 139.17 -172.7)" id="object-1"  >
<path style="stroke: none; stroke-width: 1; stroke-dasharray: none; stroke-linecap: butt; stroke-dashoffset: 0; stroke-linejoin: miter; stroke-miterlimit: 4; fill: rgb(255,255,255); fill-rule: nonzero; opacity: 1;" vector-effect="non-scaling-stroke"  transform=" translate(-1155.14, -833.39)" d="M 1141.4 761.549 Q 1143.17 761.21 1144.96 760.958 Q 1146.75 760.707 1148.55 760.544 Q 1150.35 760.381 1152.16 760.308 Q 1153.96 760.234 1155.77 760.249 Q 1157.57 760.265 1159.38 760.369 Q 1161.18 760.474 1162.98 760.667 Q 1164.77 760.861 1166.56 761.143 Q 1168.34 761.424 1170.11 761.794 Q 1171.88 762.164 1173.62 762.62 Q 1175.37 763.077 1177.09 763.619 Q 1178.82 764.161 1180.51 764.787 Q 1182.21 765.414 1183.87 766.123 Q 1185.53 766.833 1187.15 767.623 Q 1188.78 768.414 1190.36 769.284 Q 1191.94 770.153 1193.48 771.1 Q 1195.02 772.047 1196.51 773.068 Q 1198 774.09 1199.44 775.184 Q 1200.87 776.278 1202.26 777.441 Q 1203.64 778.605 1204.96 779.835 Q 1206.28 781.066 1207.54 782.36 Q 1208.8 783.654 1210 785.009 Q 1211.19 786.363 1212.32 787.775 Q 1213.45 789.188 1214.5 790.653 Q 1215.56 792.119 1216.54 793.636 Q 1217.52 795.152 1218.43 796.715 Q 1219.33 798.278 1220.16 799.883 Q 1220.99 801.489 1221.73 803.134 Q 1222.48 804.778 1223.15 806.458 Q 1223.81 808.137 1224.39 809.847 Q 1224.97 811.558 1225.47 813.294 Q 1225.97 815.031 1226.38 816.791 Q 1226.79 818.55 1227.11 820.327 Q 1227.43 822.104 1227.67 823.895 Q 1227.9 825.686 1228.05 827.487 Q 1228.19 829.287 1228.25 831.093 Q 1228.31 832.898 1228.27 834.704 Q 1228.24 836.51 1228.12 838.313 Q 1228 840.115 1227.79 841.909 Q 1227.58 843.703 1227.28 845.484 Q 1226.98 847.266 1226.59 849.03 Q 1226.21 850.795 1225.74 852.538 Q 1225.26 854.282 1224.7 855.999 Q 1224.15 857.717 1223.5 859.406 Q 1222.86 861.094 1222.14 862.748 Q 1221.41 864.403 1220.61 866.019 Q 1219.8 867.636 1218.92 869.211 Q 1218.03 870.786 1217.07 872.315 Q 1216.11 873.844 1215.07 875.324 Q 1214.04 876.805 1212.93 878.232 Q 1211.82 879.659 1210.65 881.029 Q 1209.47 882.4 1208.23 883.711 Q 1206.98 885.022 1205.68 886.27 Q 1204.37 887.518 1203.01 888.7 Q 1201.64 889.882 1200.22 890.995 Q 1198.8 892.109 1197.32 893.15 Q 1195.84 894.192 1194.32 895.159 Q 1192.79 896.127 1191.22 897.018 Q 1189.65 897.909 1188.04 898.721 Q 1186.42 899.534 1184.77 900.265 Q 1183.12 900.997 1181.44 901.646 Q 1179.75 902.296 1178.03 902.861 Q 1176.32 903.426 1174.58 903.906 Q 1172.84 904.386 1171.07 904.78 Q 1169.31 905.173 1167.53 905.479 Q 1165.77 905.781 1164 905.998 Q 1162.23 906.214 1160.45 906.344 Q 1158.67 906.473 1156.88 906.516 Q 1155.1 906.558 1153.31 906.514 Q 1151.53 906.469 1149.75 906.338 Q 1147.97 906.206 1146.2 905.988 Q 1144.43 905.77 1142.67 905.465 Q 1140.91 905.161 1139.17 904.771 Q 1137.42 904.382 1135.7 903.907 Q 1133.98 903.433 1132.29 902.876 Q 1130.59 902.318 1128.93 901.678 Q 1127.26 901.039 1125.63 900.318 Q 1123.99 899.598 1122.4 898.799 Q 1120.8 898 1119.25 897.124 Q 1117.69 896.249 1116.18 895.298 Q 1114.67 894.347 1113.21 893.324 Q 1111.74 892.301 1110.33 891.207 Q 1108.92 890.114 1107.57 888.953 Q 1106.21 887.792 1104.91 886.566 Q 1103.62 885.341 1102.38 884.053 Q 1101.14 882.766 1099.97 881.42 Q 1098.8 880.073 1097.69 878.672 Q 1096.59 877.27 1095.55 875.816 Q 1094.52 874.362 1093.56 872.859 Q 1092.59 871.356 1091.7 869.808 Q 1090.81 868.26 1090 866.671 Q 1089.19 865.081 1088.46 863.454 Q 1087.72 861.827 1087.07 860.166 Q 1086.42 858.505 1085.85 856.814 Q 1085.27 855.123 1084.79 853.406 Q 1084.3 851.689 1083.89 849.951 Q 1083.49 848.212 1083.17 846.456 Q 1082.85 844.7 1082.62 842.93 Q 1082.39 841.161 1082.24 839.382 Q 1082.09 837.603 1082.03 835.819 Q 1081.98 834.035 1082 832.25 Q 1082.03 830.466 1082.15 828.685 Q 1082.26 826.903 1082.46 825.13 Q 1082.66 823.356 1082.95 821.595 Q 1083.24 819.833 1083.61 818.088 Q 1083.99 816.343 1084.44 814.618 Q 1084.9 812.893 1085.44 811.192 Q 1085.99 809.491 1086.61 807.819 Q 1087.23 806.147 1087.94 804.507 Q 1088.64 802.867 1089.43 801.263 Q 1090.21 799.66 1091.07 798.097 Q 1091.93 796.533 1092.87 795.014 Q 1093.81 793.494 1094.82 792.022 Q 1095.83 790.55 1096.91 789.13 Q 1097.99 787.708 1099.13 786.342 Q 1100.28 784.975 1101.5 783.666 Q 1102.71 782.357 1103.99 781.109 Q 1105.26 779.861 1106.6 778.676 Q 1107.93 777.492 1109.32 776.374 Q 1110.71 775.256 1112.16 774.207 Q 1113.6 773.158 1115.1 772.181 Q 1116.59 771.204 1118.13 770.301 Q 1119.67 769.398 1121.25 768.571 Q 1122.83 767.744 1124.45 766.995 Q 1126.07 766.246 1127.73 765.578 Q 1129.38 764.909 1131.07 764.321 Q 1132.75 763.734 1134.47 763.229 Q 1136.18 762.725 1137.91 762.305 Q 1139.65 761.884 1141.4 761.549 Z" stroke-linecap="round" />
</g>
		<g transform="matrix(1 0 0 1 -140.46 180.69)" id="object-2"  >
<path style="stroke: none; stroke-width: 0; stroke-dasharray: none; stroke-linecap: butt; stroke-dashoffset: 0; stroke-linejoin: miter; stroke-miterlimit: 4; fill: rgb(255,255,255); fill-rule: nonzero; opacity: 1;" vector-effect="non-scaling-stroke"  transform=" translate(-875.52, -1186.78)" d="M 867.252 1114.17 Q 869.037 1113.97 870.831 1113.85 Q 872.624 1113.74 874.42 1113.71 Q 876.217 1113.68 878.013 1113.74 Q 879.809 1113.81 881.599 1113.96 Q 883.39 1114.1 885.171 1114.34 Q 886.952 1114.58 888.72 1114.9 Q 890.487 1115.23 892.236 1115.64 Q 893.985 1116.05 895.712 1116.55 Q 897.439 1117.04 899.139 1117.63 Q 900.84 1118.21 902.51 1118.87 Q 904.179 1119.53 905.815 1120.28 Q 907.45 1121.02 909.046 1121.85 Q 910.643 1122.67 912.197 1123.57 Q 913.751 1124.48 915.259 1125.45 Q 916.767 1126.43 918.225 1127.48 Q 919.683 1128.53 921.088 1129.65 Q 922.492 1130.77 923.84 1131.96 Q 925.188 1133.15 926.476 1134.4 Q 927.764 1135.65 928.989 1136.97 Q 930.214 1138.28 931.372 1139.66 Q 932.531 1141.03 933.621 1142.46 Q 934.711 1143.89 935.729 1145.37 Q 936.747 1146.85 937.691 1148.38 Q 938.636 1149.91 939.504 1151.48 Q 940.372 1153.05 941.161 1154.67 Q 941.951 1156.28 942.66 1157.93 Q 943.369 1159.58 943.997 1161.27 Q 944.624 1162.95 945.168 1164.66 Q 945.712 1166.38 946.171 1168.11 Q 946.63 1169.85 947.003 1171.61 Q 947.376 1173.37 947.662 1175.14 Q 947.948 1176.91 948.147 1178.7 Q 948.346 1180.49 948.457 1182.28 Q 948.568 1184.07 948.59 1185.87 Q 948.613 1187.67 948.547 1189.46 Q 948.482 1191.26 948.328 1193.05 Q 948.174 1194.84 947.932 1196.62 Q 947.691 1198.4 947.362 1200.16 Q 947.033 1201.93 946.618 1203.68 Q 946.203 1205.43 945.702 1207.15 Q 945.201 1208.88 944.617 1210.58 Q 944.032 1212.28 943.364 1213.94 Q 942.696 1215.61 941.948 1217.25 Q 941.199 1218.88 940.371 1220.47 Q 939.543 1222.07 938.637 1223.62 Q 937.732 1225.17 936.751 1226.68 Q 935.77 1228.18 934.717 1229.64 Q 933.663 1231.09 932.539 1232.5 Q 931.416 1233.9 930.224 1235.24 Q 929.033 1236.59 927.777 1237.87 Q 926.521 1239.16 925.204 1240.38 Q 923.886 1241.6 922.51 1242.76 Q 921.134 1243.91 919.703 1245 Q 918.272 1246.08 916.789 1247.1 Q 915.306 1248.11 913.775 1249.05 Q 912.245 1250 910.669 1250.86 Q 909.094 1251.72 907.478 1252.51 Q 905.862 1253.3 904.21 1254 Q 902.557 1254.71 900.872 1255.33 Q 899.187 1255.95 897.473 1256.49 Q 895.76 1257.03 894.021 1257.49 Q 892.283 1257.94 890.525 1258.31 Q 888.766 1258.68 886.992 1258.96 Q 885.217 1259.25 883.431 1259.44 Q 881.65 1259.63 879.862 1259.74 Q 878.074 1259.85 876.283 1259.87 Q 874.492 1259.88 872.702 1259.82 Q 870.912 1259.75 869.128 1259.59 Q 867.343 1259.43 865.569 1259.19 Q 863.794 1258.95 862.033 1258.62 Q 860.273 1258.28 858.531 1257.87 Q 856.789 1257.45 855.069 1256.95 Q 853.349 1256.45 851.656 1255.87 Q 849.963 1255.28 848.3 1254.61 Q 846.638 1253.95 845.01 1253.2 Q 843.383 1252.45 841.793 1251.62 Q 840.204 1250.8 838.658 1249.89 Q 837.111 1248.99 835.61 1248.01 Q 834.11 1247.03 832.659 1245.98 Q 831.208 1244.93 829.81 1243.81 Q 828.412 1242.69 827.071 1241.51 Q 825.73 1240.32 824.449 1239.07 Q 823.167 1237.81 821.949 1236.5 Q 820.73 1235.19 819.578 1233.82 Q 818.425 1232.45 817.341 1231.02 Q 816.257 1229.59 815.244 1228.12 Q 814.231 1226.64 813.291 1225.11 Q 812.352 1223.59 811.489 1222.02 Q 810.625 1220.45 809.839 1218.84 Q 809.054 1217.23 808.348 1215.58 Q 807.642 1213.94 807.018 1212.26 Q 806.394 1210.58 805.852 1208.87 Q 805.311 1207.17 804.854 1205.43 Q 804.397 1203.7 804.025 1201.95 Q 803.654 1200.2 803.369 1198.43 Q 803.083 1196.66 802.885 1194.88 Q 802.687 1193.1 802.575 1191.31 Q 802.464 1189.52 802.441 1187.73 Q 802.418 1185.94 802.482 1184.15 Q 802.547 1182.36 802.699 1180.58 Q 802.851 1178.79 803.09 1177.02 Q 803.33 1175.24 803.656 1173.48 Q 803.982 1171.72 804.394 1169.97 Q 804.806 1168.23 805.303 1166.51 Q 805.8 1164.79 806.381 1163.09 Q 806.961 1161.4 807.624 1159.73 Q 808.287 1158.07 809.031 1156.44 Q 809.775 1154.81 810.597 1153.22 Q 811.42 1151.63 812.32 1150.08 Q 813.22 1148.53 814.194 1147.03 Q 815.169 1145.52 816.216 1144.07 Q 817.263 1142.62 818.38 1141.22 Q 819.497 1139.81 820.681 1138.47 Q 821.865 1137.13 823.114 1135.84 Q 824.362 1134.56 825.673 1133.34 Q 826.983 1132.11 828.351 1130.96 Q 829.72 1129.8 831.143 1128.71 Q 832.566 1127.63 834.041 1126.61 Q 835.516 1125.59 837.039 1124.65 Q 838.562 1123.71 840.13 1122.84 Q 841.697 1121.97 843.305 1121.18 Q 844.913 1120.39 846.558 1119.68 Q 848.203 1118.97 849.881 1118.34 Q 851.558 1117.72 853.265 1117.17 Q 854.971 1116.63 856.702 1116.16 Q 858.433 1115.7 860.185 1115.33 Q 861.936 1114.95 863.704 1114.66 Q 865.472 1114.37 867.252 1114.17 Z" stroke-linecap="round" />
</g>
</g>
</g>
</svg>